<svg viewBox="0 0 19 19" fill="none" xmlns="http://www.w3.org/2000/svg">
<path d="M16.625 10.1254C16.5005 11.473 15.9948 12.7572 15.167 13.8279C14.3392 14.8985 13.2236 15.7113 11.9508 16.171C10.678 16.6308 9.30053 16.7185 7.97965 16.424C6.65877 16.1295 5.44908 15.4648 4.49214 14.5079C3.5352 13.551 2.87058 12.3413 2.57605 11.0204C2.28153 9.69951 2.36928 8.32207 2.82903 7.04924C3.28879 5.7764 4.10153 4.66083 5.17217 3.83305C6.24281 3.00528 7.52705 2.49953 8.87463 2.375C8.08566 3.44238 7.70601 4.75748 7.80472 6.08112C7.90342 7.40476 8.47393 8.649 9.41249 9.58756C10.351 10.5261 11.5953 11.0966 12.9189 11.1953C14.2426 11.294 15.5577 10.9144 16.625 10.1254V10.1254Z" stroke="currentColor" stroke-width="2" stroke-linecap="round" stroke-linejoin="round"/>
</svg>
