<svg width="1440" height="900" viewBox="0 0 1440 900" fill="none" xmlns="http://www.w3.org/2000/svg">
<g clip-path="url(#clip0_239_239)">
<path d="M0 91.5L120 114C240 136.5 480 181.5 720 183C960 184.5 1200 142.5 1320 121.5L1440 100.5V0H1320C1200 0 960 0 720 0C480 0 240 0 120 0H0V91.5Z" fill="white"/>
<path d="M0 100.5L120 127.5C240 154.5 480 208.5 720 217.5C960 226.5 1200 190.5 1320 172.5L1440 154.5V97.5L1320 118.5C1200 139.5 960 181.5 720 180C480 178.5 240 133.5 120 111L0 88.5V100.5Z" fill="#F6EEF8"/>
<path d="M0 244.5L120 274.5C240 304.5 480 364.5 720 382.5C960 400.5 1200 376.5 1320 364.5L1440 352.5V151.5L1320 169.5C1200 187.5 960 223.5 720 214.5C480 205.5 240 151.5 120 124.5L0 97.5V244.5Z" fill="#EEDDF1"/>
<path d="M0 271.5L120 298.5C240 325.5 480 379.5 720 396C960 412.5 1200 391.5 1320 381L1440 370.5V349.5L1320 361.5C1200 373.5 960 397.5 720 379.5C480 361.5 240 301.5 120 271.5L0 241.5V271.5Z" fill="#E5CDEA"/>
<path d="M0 343.5L120 363C240 382.5 480 421.5 720 435C960 448.5 1200 436.5 1320 430.5L1440 424.5V367.5L1320 378C1200 388.5 960 409.5 720 393C480 376.5 240 322.5 120 295.5L0 268.5V343.5Z" fill="#DCBCE3"/>
<path d="M0 433.5L120 459C240 484.5 480 535.5 720 556.5C960 577.5 1200 568.5 1320 564L1440 559.5V421.5L1320 427.5C1200 433.5 960 445.5 720 432C480 418.5 240 379.5 120 360L0 340.5V433.5Z" fill="#D3ACDC"/>
<path d="M0 577.5L120 597C240 616.5 480 655.5 720 688.5C960 721.5 1200 748.5 1320 762L1440 775.5V556.5L1320 561C1200 565.5 960 574.5 720 553.5C480 532.5 240 481.5 120 456L0 430.5V577.5Z" fill="#C99CD4"/>
<path d="M0 667.5L120 678C240 688.5 480 709.5 720 730.5C960 751.5 1200 772.5 1320 783L1440 793.5V772.5L1320 759C1200 745.5 960 718.5 720 685.5C480 652.5 240 613.5 120 594L0 574.5V667.5Z" fill="#C08BCD"/>
<path d="M0 739.5L120 748.5C240 757.5 480 775.5 720 790.5C960 805.5 1200 817.5 1320 823.5L1440 829.5V790.5L1320 780C1200 769.5 960 748.5 720 727.5C480 706.5 240 685.5 120 675L0 664.5V739.5Z" fill="#B67BC6"/>
<path d="M0 784.5L120 790.5C240 796.5 480 808.5 720 817.5C960 826.5 1200 832.5 1320 835.5L1440 838.5V826.5L1320 820.5C1200 814.5 960 802.5 720 787.5C480 772.5 240 754.5 120 745.5L0 736.5V784.5Z" fill="#AC6BBF"/>
<path d="M0 820.5L120 829.5C240 838.5 480 856.5 720 861C960 865.5 1200 856.5 1320 852L1440 847.5V835.5L1320 832.5C1200 829.5 960 823.5 720 814.5C480 805.5 240 793.5 120 787.5L0 781.5V820.5Z" fill="#A25AB7"/>
<path d="M0 901.5H120C240 901.5 480 901.5 720 901.5C960 901.5 1200 901.5 1320 901.5H1440V844.5L1320 849C1200 853.5 960 862.5 720 858C480 853.5 240 835.5 120 826.5L0 817.5V901.5Z" fill="#9849B0"/>
</g>
<defs>
<clipPath id="clip0_239_239">
<rect width="1440" height="900" fill="white"/>
</clipPath>
</defs>
</svg>
