<?xml version="1.0" standalone="no"?>
<!DOCTYPE svg PUBLIC "-//W3C//DTD SVG 20010904//EN"
 "http://www.w3.org/TR/2001/REC-SVG-20010904/DTD/svg10.dtd">
<svg version="1.0" xmlns="http://www.w3.org/2000/svg"
 width="700.000000pt" height="700.000000pt" viewBox="0 0 700.000000 700.000000"
 preserveAspectRatio="xMidYMid meet">
<metadata>
Created by potrace 1.14, written by Peter Selinger 2001-2017
</metadata>
<g transform="translate(0.000000,700.000000) scale(0.100000,-0.100000)"
fill="#000000" stroke="none">
<path d="M10 6997 c0 -1 135 -191 300 -422 l300 -420 0 -653 0 -653 -24 -52
c-13 -29 -27 -63 -31 -77 -4 -14 -11 -29 -15 -35 -17 -22 -121 -345 -136 -425
-3 -14 -11 -50 -19 -80 -13 -51 -46 -246 -59 -349 -38 -300 -23 -702 39 -1016
8 -38 17 -84 20 -102 14 -86 102 -362 160 -507 l65 -163 0 -599 c0 -645 3
-605 -47 -664 -7 -8 -32 -43 -55 -77 -24 -34 -142 -200 -263 -369 -121 -169
-224 -313 -228 -321 -7 -11 209 -13 1256 -13 l1264 0 -1 141 c-1 77 1 142 4
144 3 2 33 -5 65 -16 120 -40 361 -101 452 -114 21 -4 45 -8 53 -10 8 -2 41
-7 73 -10 32 -4 68 -8 80 -11 124 -24 639 -24 787 0 14 3 43 7 65 10 598 77
1204 347 1700 758 46 38 326 316 371 368 268 312 494 703 627 1085 34 99 92
297 101 345 2 14 9 45 14 70 6 25 13 61 16 80 3 19 7 44 10 55 11 61 20 127
33 265 15 158 8 573 -12 703 -2 12 -6 44 -10 70 -4 27 -8 59 -11 70 -28 149
-48 242 -61 287 -8 30 -16 62 -18 70 -19 93 -140 409 -211 551 -49 99 -173
320 -184 329 -4 3 -9 12 -12 20 -13 35 -209 296 -292 390 -54 60 -269 275
-326 325 -56 50 -173 143 -220 175 -19 13 -37 27 -40 30 -10 13 -179 120 -285
180 -89 52 -257 135 -360 180 -141 61 -455 158 -596 185 -13 3 -46 9 -74 14
-27 6 -66 12 -85 15 -110 16 -182 25 -260 32 -36 3 -69 9 -75 14 -5 4 -49 23
-96 43 -168 72 -382 127 -569 146 -74 8 -3180 16 -3180 8z"/>
</g>
</svg>
